# xmcd
#
# Track frame offsets:
#	150
#	14290
#	27770
#	41100
#	51445
#	65957
#	79437
#	93480
#	107040
#	121772
#	136922
#	151117
#	165587
#	178707
#	192102
#	206250
#	219862
#	232370
#	245600
#	259020
#	273197
#
# Disc length: 3837 seconds
#
# Revision: 0
# Processed by: cddbd v1.4PL0 Copyright (c) Steve Scherf et al.
# Submitted via: dBpowerAMP V4.0
#
DISCID=270efb15
DTITLE=Willie Bryant - Blues Around the Clock
DYEAR=1900
DGENRE=Blues
TTITLE0=Amateur Night in Harlem
TTITLE1=Blues Around the Country, Pt. 1
TTITLE2=Blues Around the Country, Pt. 2
TTITLE3=Naggin' Wife Blues
TTITLE4=Blues Without Booze
TTITLE5=Sneaky Pete
TTITLE6=Because Your Baby Is on Your Mind
TTITLE7=Honey in a Hurry
TTITLE8=Blues Around the Clock, Pt. 1
TTITLE9=Blues Around the Clock, Pt. 2
TTITLE10=Alley Alley Blues
TTITLE11=Blues in the Red
TTITLE12=Reboppin' for Red
TTITLE13=I Found Out
TTITLE14=Tell Me
TTITLE15=Algiers Blues
TTITLE16=Phungie Phungie An' Stchew
TTITLE17=Kangaroo Blues
TTITLE18=I Can't Sleep
TTITLE19=You'll Never Miss the Water 'Till the Well Runs Dry
TTITLE20=It's over Because We're Through
EXTD=
EXTT0=
EXTT1=
EXTT2=
EXTT3=
EXTT4=
EXTT5=
EXTT6=
EXTT7=
EXTT8=
EXTT9=
EXTT10=
EXTT11=
EXTT12=
EXTT13=
EXTT14=
EXTT15=
EXTT16=
EXTT17=
EXTT18=
EXTT19=
EXTT20=
PLAYORDER=
